<?xml version="1.0" standalone="no"?>
<!DOCTYPE svg PUBLIC "-//W3C//DTD SVG 1.1//EN" "http://www.w3.org/Graphics/SVG/1.1/DTD/svg11.dtd" >
<svg xmlns="http://www.w3.org/2000/svg">
<metadata></metadata>
<defs>
<font id="droidigaregular" horiz-adv-x="1480" >
<font-face units-per-em="2048" ascent="1536" descent="-512" />
<missing-glyph horiz-adv-x="624" />
<glyph horiz-adv-x="2048" />
<glyph horiz-adv-x="2048" />
<glyph unicode="&#xd;" horiz-adv-x="2048" />
<glyph unicode=" "  horiz-adv-x="624" />
<glyph unicode="&#x09;" horiz-adv-x="624" />
<glyph unicode="&#xa0;" horiz-adv-x="624" />
<glyph unicode="!" horiz-adv-x="528" d="M0 119q0 50 35 85.5t84 35.5q51 0 86 -35.5t35 -85.5t-35 -84.5t-86 -34.5q-49 0 -84 35t-35 84zM0 418v1016h240v-1016h-240z" />
<glyph unicode="&#x22;" horiz-adv-x="1013" d="M0 1079v355h238v-355h-238zM444 1079v355h238v-355h-238z" />
<glyph unicode="#" horiz-adv-x="1468" d="M0 297v240h180v299h-180v239h180v359h238v-359h301v359h237v-359h181v-239h-181v-299h181v-240h-181v-299h-237v299h-301v-299h-238v299h-180zM418 537h301v299h-301v-299z" />
<glyph unicode="$" horiz-adv-x="1230" d="M0 418h240q3 -101 92 -150v344q-142 27 -237 140t-95 264q0 123 64.5 220t166 147.5t218.5 50.5q187 0 315 -118t131 -300h-238q-3 102 -92 151v-346q141 -27 235.5 -140t94.5 -263q0 -93 -37 -173t-99 -132.5t-142.5 -82.5t-167.5 -30q-189 0 -317.5 116.5t-131.5 301.5 zM240 1016q0 -103 92 -152v303q-92 -49 -92 -151zM565 266q43 26 66.5 66t23.5 84t-23.5 84t-66.5 67v-301z" />
<glyph unicode="%" horiz-adv-x="1632" d="M0 4l1112 1430h227l-1112 -1430h-227zM43 1120q0 129 92 221.5t221 92.5t221.5 -92.5t92.5 -221.5t-92.5 -221t-221.5 -92t-221 92t-92 221zM223 1120q0 -56 38.5 -94.5t94.5 -38.5t94.5 38.5t38.5 94.5t-39 95.5t-94 39.5t-94 -39.5t-39 -95.5zM670 315q0 130 91 222 t220 92q130 0 221.5 -91.5t91.5 -222.5q0 -129 -91.5 -220t-221.5 -91q-129 0 -220 91t-91 220zM848 315q0 -55 39 -94t94 -39q57 0 96 38.5t39 94.5q0 57 -39 96.5t-96 39.5q-56 0 -94.5 -39.5t-38.5 -96.5z" />
<glyph unicode="&#x26;" horiz-adv-x="1476" d="M0 477q0 187 127 324q-60 51 -93.5 121.5t-33.5 152.5q0 148 105 253.5t253 105.5q149 0 254 -105.5t105 -253.5q0 -98 -48.5 -180.5t-129.5 -130.5l178 -178v250h420v-240h-181v-119q0 -65 -14 -117l219 -217l-170 -170l-170 170q-66 -68 -155.5 -106.5t-188.5 -38.5 q-97 0 -185 38t-152 102t-102 153t-38 186zM240 477q0 -100 69.5 -169.5t167.5 -69.5q105 0 174 75l-336 338q-75 -69 -75 -174zM240 1075q0 -50 34.5 -85.5t83.5 -35.5t84 35.5t35 85.5q0 49 -34.5 84t-84.5 35q-49 0 -83.5 -34.5t-34.5 -84.5z" />
<glyph unicode="'" horiz-adv-x="569" d="M0 1079v355h238v-355h-238z" />
<glyph unicode="(" horiz-adv-x="794" d="M0 721q0 364 184 711h277q-223 -347 -223 -709q0 -155 41 -313q56 -225 180 -410h-277q-92 176 -135 350q-47 185 -47 371z" />
<glyph unicode=")" horiz-adv-x="790" d="M0 0q223 347 223 709q0 155 -41 313q-53 212 -180 410h277q86 -165 135 -351q47 -181 47 -368q0 -365 -185 -713h-276z" />
<glyph unicode="*" horiz-adv-x="960" d="M0 1069v105h186l-145 145l74 74l145 -146v187h105v-187l143 146l74 -74l-146 -145h187v-105h-187l146 -145l-74 -72l-143 143v-186h-105v186l-145 -143l-74 72l145 145h-186z" />
<glyph unicode="+" horiz-adv-x="1241" d="M0 356v240h358v356h238v-356h356v-240h-356v-356h-238v356h-358z" />
<glyph unicode="," horiz-adv-x="528" d="M0 119q0 49 35 84t84 35q51 0 86 -34.5t35 -84.5q0 -59 -12.5 -101.5t-30.5 -62t-35.5 -30.5t-29.5 -12l-13 -1v88q-49 0 -84 35t-35 84z" />
<glyph unicode="-" horiz-adv-x="1236" d="M4 356v238h946v-238h-946z" />
<glyph unicode="." horiz-adv-x="528" d="M0 119q0 50 35 85.5t84 35.5q51 0 86 -35.5t35 -85.5t-35 -84.5t-86 -34.5q-49 0 -84 35t-35 84z" />
<glyph unicode="/" horiz-adv-x="1705" d="M0 -2l666 1436h264l-666 -1436h-264z" />
<glyph unicode="0" horiz-adv-x="1173" d="M0 418v596q0 172 122.5 295t295.5 123q172 0 295 -123t123 -295v-596q0 -173 -123 -295.5t-295 -122.5q-173 0 -295.5 122.5t-122.5 295.5zM240 418q0 -75 52 -127.5t126 -52.5t126 52.5t52 127.5v596q0 74 -52 126t-126 52t-126 -52t-52 -126v-596z" />
<glyph unicode="1" horiz-adv-x="860" d="M0 1305l319 129h203v-1434h-239v1161l-195 -78z" />
<glyph unicode="2" horiz-adv-x="1173" d="M0 0v217l594 832q-12 63 -61 104t-115 41q-74 0 -126 -52t-52 -126h-240q0 172 123 295t295 123q173 0 295.5 -123t122.5 -295v-39l-527 -737h527v-240h-836z" />
<glyph unicode="3" horiz-adv-x="1173" d="M0 420h240q0 -75 52 -127.5t126 -52.5t126 52.5t52 127.5q0 66 -44 116.5t-110 59.5l-32 2v238l32 2q66 9 110 60t44 118q0 74 -52 126t-126 52t-126 -52t-52 -126h-240q0 172 122.5 295t295.5 123q172 0 295 -123t123 -295q0 -177 -125 -299q125 -122 125 -297 q0 -173 -123 -295.5t-295 -122.5q-173 0 -295.5 122.5t-122.5 295.5z" />
<glyph unicode="4" horiz-adv-x="1165" d="M0 537v225l592 672h237v-1434h-237v537h-592zM332 776h260v295z" />
<glyph unicode="5" horiz-adv-x="1169" d="M0 422h238q0 -75 52.5 -127.5t127.5 -52.5q74 0 126 52.5t52 127.5q0 74 -52 126t-126 52h-418v834h834v-238h-596v-358h180q172 0 294 -122t122 -294q0 -173 -122 -295.5t-294 -122.5q-173 0 -295.5 122.5t-122.5 295.5z" />
<glyph unicode="6" horiz-adv-x="1171" d="M0 420q0 71 18 121l318 893h254l-213 -598q6 0 20 1t21 1q172 0 295 -123t123 -295q0 -173 -123 -295.5t-295 -122.5q-174 0 -295 121q-54 54 -84 121q-39 83 -39 176zM240 420q0 -75 52 -127.5t126 -52.5t126 52.5t52 127.5q0 74 -52 126t-126 52q-54 0 -98.5 -30.5 t-65.5 -78.5q-4 -6 -8 -22q-6 -21 -6 -47z" />
<glyph unicode="7" horiz-adv-x="1165" d="M0 1192v240h829l-538 -1432h-254l446 1192h-483z" />
<glyph unicode="8" horiz-adv-x="1173" d="M0 420q0 174 125 299q-125 125 -125 299q0 172 123 295t295 123q173 0 296.5 -123t123.5 -295q0 -175 -127 -299q127 -124 127 -299q0 -173 -123.5 -296.5t-296.5 -123.5q-172 0 -295 123.5t-123 296.5zM240 420q0 -75 52 -127.5t126 -52.5q75 0 127.5 52.5t52.5 127.5 q0 74 -52.5 126t-127.5 52q-74 0 -126 -52t-52 -126zM240 1018q0 -75 52 -127.5t126 -52.5q75 0 127.5 52.5t52.5 127.5q0 74 -52.5 126t-127.5 52q-74 0 -126 -52t-52 -126z" />
<glyph unicode="9" horiz-adv-x="1171" d="M0 1016q0 172 122.5 295t295.5 123q172 0 295 -123q54 -54 84 -119q39 -83 39 -176q0 -70 -19 -123l-319 -891h-252l213 598q-14 -2 -41 -2q-173 0 -295.5 122.5t-122.5 295.5zM240 1016q0 -74 52 -126t126 -52q55 0 99.5 29t64.5 77q4 9 8 23q6 24 6 49q0 74 -52 126 t-126 52t-126 -52t-52 -126z" />
<glyph unicode=":" horiz-adv-x="528" d="M0 119q0 49 35 84t84 35q51 0 86 -34.5t35 -84.5t-35 -84.5t-86 -34.5q-49 0 -84 35t-35 84zM0 717q0 49 35 84t84 35q51 0 86 -34.5t35 -84.5t-35 -84.5t-86 -34.5q-49 0 -84 35t-35 84z" />
<glyph unicode=";" horiz-adv-x="528" d="M0 119q0 49 35 84t84 35q51 0 86 -34.5t35 -84.5q0 -59 -12.5 -101.5t-30.5 -62t-35.5 -30.5t-29.5 -12l-13 -1v88q-49 0 -84 35t-35 84zM0 717q0 49 35 84t84 35q51 0 86 -34.5t35 -84.5t-35 -84.5t-86 -34.5q-49 0 -84 35t-35 84z" />
<glyph unicode="&#x3c;" horiz-adv-x="989" d="M0 569l539 570l163 -170l-378 -400l378 -397l-163 -172z" />
<glyph unicode="=" horiz-adv-x="1232" d="M0 119v237h946v-237h-946zM0 594v237h946v-237h-946z" />
<glyph unicode="&#x3e;" horiz-adv-x="989" d="M0 172l377 397l-377 400l162 170l540 -570l-540 -569z" />
<glyph unicode="?" horiz-adv-x="1171" d="M0 1016q0 172 122.5 295t295.5 123q172 0 295 -123t123 -295q0 -139 -84 -250.5t-215 -149.5v-196h-238v409l143 11q66 9 110 59.5t44 116.5q0 74 -52 126t-126 52t-127 -52.5t-53 -125.5h-238zM299 121q0 49 34.5 84t84.5 35t84.5 -35t34.5 -84t-34.5 -84t-84.5 -35 t-84.5 35t-34.5 84z" />
<glyph unicode="@" horiz-adv-x="1832" d="M0 926q0 152 59.5 290.5t159.5 238.5t238.5 159t290.5 59t290 -59t238.5 -159t159.5 -238.5t59 -290.5h-240q0 136 -65.5 251.5t-178.5 184t-247 72.5l571 -1434h-258l-73 170l-484 10l-71 -180h-259l125 315q-145 103 -230 264t-85 347zM240 926q0 -110 45 -208.5 t125 -170.5l352 887h-14q-138 0 -255 -68t-185 -185t-68 -255zM621 434q52 -13 98 -16h192l-147 370z" />
<glyph unicode="A" d="M0 0l571 1434l574 -1434h-258l-72 180h-485l-72 -180h-258zM424 418h297l-150 370z" />
<glyph unicode="B" horiz-adv-x="1243" d="M0 0v1432h477q10 0 27 -1t66.5 -9t95 -22.5t100.5 -46t94.5 -73.5t66.5 -111.5t27 -154.5q0 -61 -13 -110.5t-34.5 -80t-47 -52.5t-50.5 -32.5t-46.5 -16.5t-34.5 -6l-13 -1q49 0 88.5 -16.5t64 -42.5t42.5 -57.5t26 -63.5t12.5 -58t5.5 -43v-16q0 -67 -16.5 -124 t-44 -97t-63 -73t-75.5 -52.5t-79.5 -34.5t-75 -21.5t-63 -10.5t-43.5 -5h-17h-477zM238 238h239q10 0 26 1t57 11t72.5 26.5t57 54t25.5 87.5t-24.5 86.5t-59.5 53.5t-70 26.5t-59 10.5l-25 1h-239v-358zM238 836h239q5 0 13.5 0.5t33.5 4t47.5 9.5t49.5 19.5t47 31.5 t33.5 47.5t13.5 65.5q0 50 -24.5 87.5t-59.5 54t-70 26.5t-59 11l-25 1h-239v-358z" />
<glyph unicode="C" horiz-adv-x="1511" d="M0 717q0 145 57 278t153 229t229 153t278 57q147 0 277 -55.5t229 -155.5l-168 -168q-66 66 -153.5 102.5t-184.5 36.5q-198 0 -337.5 -139.5t-139.5 -337.5t139.5 -337.5t337.5 -139.5q97 0 184.5 36.5t153.5 102.5l168 -170q-99 -99 -229.5 -154t-276.5 -55 q-145 0 -278 57t-229 153t-153 229t-57 278z" />
<glyph unicode="D" horiz-adv-x="1361" d="M0 0v1432h240q11 0 29.5 -0.5t75 -7.5t112 -18.5t130.5 -36.5t139.5 -59t130 -90t112 -124.5t75.5 -166t29 -212.5q0 -146 -46 -265t-119.5 -191.5t-162 -126.5t-177.5 -78.5t-162.5 -38.5t-119.5 -15l-46 -2h-240zM240 240q12 0 33.5 1t83.5 10.5t118.5 26t125 52 t118 84t83.5 127.5t34 176q0 77 -20.5 142t-55 110.5t-79 83t-94 60t-99 39.5t-94 24.5t-79 12t-55.5 5.5h-20v-954z" />
<glyph unicode="E" horiz-adv-x="1245" d="M0 0v1434h956v-240h-716v-358h716v-238h-716v-358h716v-240h-956z" />
<glyph unicode="F" horiz-adv-x="1245" d="M0 0v1434h956v-240h-716v-358h716v-238h-716v-598h-240z" />
<glyph unicode="G" horiz-adv-x="1603" d="M0 717q0 145 57 278t153 229t229 153t278 57q147 0 277 -55.5t229 -155.5l-168 -168q-66 66 -153.5 102.5t-184.5 36.5q-198 0 -337.5 -139.5t-139.5 -337.5t139.5 -337.5t337.5 -139.5q106 0 198.5 42.5t159.5 118.5v197h-418v238h658v-836h-240v96q-167 -96 -358 -96 q-145 0 -278 57t-229 153t-153 229t-57 278z" />
<glyph unicode="H" horiz-adv-x="1363" d="M0 0v1434h240v-594h596v594h239v-1434h-239v598h-596v-598h-240z" />
<glyph unicode="I" horiz-adv-x="575" d="M0 0v1434h240v-1434h-240z" />
<glyph unicode="J" horiz-adv-x="874" d="M0 0v240h119q50 0 87.5 18.5t54 44.5t26.5 52t11 45l1 18v778h-299v240h539v-1018q0 -85 -23 -154.5t-60 -111.5t-82 -73.5t-90 -46t-82 -22.5t-60 -9l-23 -1h-119z" />
<glyph unicode="K" horiz-adv-x="1519" d="M0 0v1434h240v-703l628 703h320l-653 -729l595 -705h-313l-442 524l-135 -151v-373h-240z" />
<glyph unicode="L" horiz-adv-x="1292" d="M0 0v1434h240v-1194h530v-240h-770z" />
<glyph unicode="M" horiz-adv-x="2070" d="M0 0v1436h244l544 -1117l523 1117h243v-1436h-239v881l-412 -881h-225l-438 899v-899h-240z" />
<glyph unicode="N" horiz-adv-x="1529" d="M0 0v1434h242l714 -1020v1020h238v-1434h-242l-712 1020v-1020h-240z" />
<glyph unicode="O" horiz-adv-x="1769" d="M0 717q0 146 56.5 278.5t152.5 228.5t228.5 153t277.5 57q146 0 279 -57t229 -153t152.5 -228.5t56.5 -278.5t-56.5 -278t-152.5 -228t-229 -152.5t-279 -56.5t-278 56.5t-228 152.5t-152.5 228t-56.5 278zM238 717q0 -96 38 -184.5t102 -152.5t152.5 -102t184.5 -38 q97 0 185.5 38t152.5 102t101.5 152t37.5 185q0 198 -139.5 337.5t-337.5 139.5q-97 0 -185 -37.5t-152 -101.5t-102 -152.5t-38 -185.5z" />
<glyph unicode="P" horiz-adv-x="1294" d="M0 -4v1438h479q10 0 27 -1t67 -9t95 -22.5t100.5 -46t95 -74t67 -112t27.5 -155.5t-26.5 -155.5t-68.5 -112t-93.5 -74t-102.5 -46t-93 -22.5t-68 -9l-27 -1h-239v-598h-240zM240 834h239q5 0 13.5 0.5t33.5 4t47.5 9.5t50.5 19.5t48 32t33.5 48t13.5 66.5t-13 66.5 t-34.5 48t-47 32t-51 19.5t-47 9.5t-34.5 4.5h-13h-239v-360z" />
<glyph unicode="Q" horiz-adv-x="1705" d="M0 717q0 145 57 278t153 229t229 153t278 57t278 -57t229 -153t153 -229t57 -278q0 -232 -131 -414l153 -153l-168 -168l-153 151q-185 -133 -418 -133q-146 0 -278.5 56.5t-228.5 152.5t-153 229t-57 279zM240 717q0 -97 37.5 -186t101.5 -153t152.5 -102t185.5 -38 q130 0 246 69l-154 152l170 170l151 -152q66 113 66 240q0 97 -38 185.5t-102 152.5t-153 101.5t-186 37.5q-198 0 -337.5 -139.5t-139.5 -337.5z" />
<glyph unicode="R" horiz-adv-x="1308" d="M0 0v1434h477q10 0 27 -1t67 -9t95 -22.5t100.5 -46t95 -73.5t67 -111.5t27.5 -154.5q0 -280 -276 -381l293 -635h-264l-275 598h-194v-598h-240zM240 836h237q5 0 13.5 0.5t33.5 4t47.5 9.5t50.5 19.5t48 32t33.5 48t13.5 66.5q0 50 -24.5 86.5t-60 53.5t-71 26.5 t-59.5 10.5l-25 1h-237v-358z" />
<glyph unicode="S" horiz-adv-x="1230" d="M0 418h240q3 -85 63.5 -131.5t145.5 -46.5q87 0 147.5 48t60.5 130q0 84 -63 130.5t-145 49.5q-112 0 -216 47q-113 53 -173 148.5t-60 222.5q0 123 64.5 220t166 147.5t218.5 50.5q187 0 315 -118t131 -300h-238q-3 85 -62 131.5t-146 46.5q-89 0 -149 -47.5t-60 -130.5 q0 -85 61.5 -132.5t147.5 -47.5q109 0 213 -48q114 -52 173.5 -147t59.5 -223q0 -93 -37 -173t-99 -132.5t-142.5 -82.5t-167.5 -30q-190 5 -318 119.5t-131 298.5z" />
<glyph unicode="T" horiz-adv-x="1292" d="M0 1194v240h956v-240h-358v-1194h-240v1194h-358z" />
<glyph unicode="U" horiz-adv-x="1521" d="M0 598v836h240v-836q0 -98 49 -192q88 -166 307 -166q222 0 307 166q22 42 34.5 90t14.5 75l2 27v836h240v-836q0 -21 -2.5 -52t-20.5 -104.5t-49 -136.5q-74 -148 -209.5 -226.5t-316.5 -78.5q-180 0 -315.5 78.5t-208.5 226.5q-31 63 -49 136.5t-20.5 104.5t-2.5 52z " />
<glyph unicode="V" horiz-adv-x="1482" d="M0 1434h258l313 -789l316 789h258l-574 -1434z" />
<glyph unicode="W" horiz-adv-x="2328" d="M0 1434h258l313 -789l316 789h266l315 -789l316 789h258l-574 -1434l-448 1122l-449 -1122z" />
<glyph unicode="X" horiz-adv-x="1652" d="M0 0l512 717l-512 717h293l366 -512l365 512h293l-512 -717l512 -717h-293l-365 512l-366 -512h-293z" />
<glyph unicode="Y" horiz-adv-x="1654" d="M0 1434h293l366 -512l365 512h293l-539 -756v-678h-239v678z" />
<glyph unicode="Z" horiz-adv-x="1497" d="M0 0l735 1194h-735v240h1161l-733 -1194h733v-240h-1161z" />
<glyph unicode="[" horiz-adv-x="813" d="M0 0v1434h477v-240h-237v-954h237v-240h-477z" />
<glyph unicode="\" horiz-adv-x="1705" d="M0 1434h264l666 -1436h-264z" />
<glyph unicode="]" horiz-adv-x="815" d="M0 0v240h240v954h-240v240h477v-1434h-477z" />
<glyph unicode="^" horiz-adv-x="1216" d="M0 1016l440 418l441 -418l-133 -125l-308 293l-307 -293z" />
<glyph unicode="_" horiz-adv-x="1222" d="M0 0v238h946v-238h-946z" />
<glyph unicode="`" horiz-adv-x="569" d="M0 1370l227 68l101 -340l-228 -68z" />
<glyph unicode="a" d="M0 0l571 1434l574 -1434h-258l-47 119h-535l-47 -119h-258zM401 358h342l-172 430z" />
<glyph unicode="b" horiz-adv-x="1243" d="M0 0v1432h477q10 0 27 -1t66.5 -9t95 -22.5t100.5 -46t94.5 -73.5t66.5 -111.5t27 -154.5q0 -61 -13 -110.5t-34.5 -80t-47 -52.5t-50.5 -32.5t-46.5 -16.5t-34.5 -6l-13 -1q49 0 88.5 -16.5t64 -42.5t42.5 -57.5t26 -63.5t12.5 -58t5.5 -43v-16q0 -67 -16.5 -124 t-44 -97t-63 -73t-75.5 -52.5t-79.5 -34.5t-75 -21.5t-63 -10.5t-43.5 -5h-17h-477zM238 238h239q10 0 26 1t57 11t72.5 26.5t57 54t25.5 87.5t-24.5 86.5t-59.5 53.5t-70 26.5t-59 10.5l-25 1h-239v-358zM238 836h239q5 0 13.5 0.5t33.5 4t47.5 9.5t49.5 19.5t47 31.5 t33.5 47.5t13.5 65.5q0 50 -24.5 87.5t-59.5 54t-70 26.5t-59 11l-25 1h-239v-358z" />
<glyph unicode="c" horiz-adv-x="1511" d="M0 717q0 145 57 278t153 229t229 153t278 57q147 0 277 -55.5t229 -155.5l-168 -168q-66 66 -153.5 102.5t-184.5 36.5q-198 0 -337.5 -139.5t-139.5 -337.5t139.5 -337.5t337.5 -139.5q97 0 184.5 36.5t153.5 102.5l168 -170q-99 -99 -229.5 -154t-276.5 -55 q-145 0 -278 57t-229 153t-153 229t-57 278z" />
<glyph unicode="d" horiz-adv-x="1361" d="M0 0v1432h240q11 0 29.5 -0.5t75 -7.5t112 -18.5t130.5 -36.5t139.5 -59t130 -90t112 -124.5t75.5 -166t29 -212.5q0 -146 -46 -265t-119.5 -191.5t-162 -126.5t-177.5 -78.5t-162.5 -38.5t-119.5 -15l-46 -2h-240zM240 240q12 0 33.5 1t83.5 10.5t118.5 26t125 52 t118 84t83.5 127.5t34 176q0 77 -20.5 142t-55 110.5t-79 83t-94 60t-99 39.5t-94 24.5t-79 12t-55.5 5.5h-20v-954z" />
<glyph unicode="e" horiz-adv-x="1245" d="M0 0v1434h956v-240h-716v-358h596v-238h-596v-358h716v-240h-956z" />
<glyph unicode="f" horiz-adv-x="1245" d="M0 0v1434h956v-240h-716v-358h716v-238h-716v-598h-240z" />
<glyph unicode="g" horiz-adv-x="1603" d="M0 717q0 145 57 278t153 229t229 153t278 57q147 0 277 -55.5t229 -155.5l-168 -168q-66 66 -153.5 102.5t-184.5 36.5q-198 0 -337.5 -139.5t-139.5 -337.5t139.5 -337.5t337.5 -139.5q106 0 198.5 42.5t159.5 118.5v197h-418v238h658v-836h-240v96q-167 -96 -358 -96 q-145 0 -278 57t-229 153t-153 229t-57 278z" />
<glyph unicode="h" horiz-adv-x="1363" d="M0 0v1434h240v-594h596v594h239v-1434h-239v598h-596v-598h-240z" />
<glyph unicode="i" horiz-adv-x="575" d="M0 0v1434h240v-1434h-240z" />
<glyph unicode="j" horiz-adv-x="874" d="M0 0v240h119q50 0 87.5 18.5t54 44.5t26.5 52t11 45l1 18v1018h240v-1018q0 -85 -23 -154.5t-60 -111.5t-82 -73.5t-90 -46t-82 -22.5t-60 -9l-23 -1h-119z" />
<glyph unicode="k" horiz-adv-x="1519" d="M0 0v1434h240v-703l628 703h320l-653 -729l595 -705h-313l-442 524l-135 -151v-373h-240z" />
<glyph unicode="l" horiz-adv-x="1292" d="M0 0v1434h240v-1194h530v-240h-770z" />
<glyph unicode="m" horiz-adv-x="2070" d="M0 0v1436h244l544 -1117l523 1117h243v-1436h-239v881l-412 -881h-225l-438 899v-899h-240z" />
<glyph unicode="n" horiz-adv-x="1529" d="M0 0v1434h242l714 -1020v1020h238v-1434h-242l-712 1020v-1020h-240z" />
<glyph unicode="o" horiz-adv-x="1400" d="M0 901q0 144 71.5 267t194 194.5t266.5 71.5q108 0 206.5 -42.5t170 -114t114 -170t42.5 -206.5q0 -144 -71.5 -266.5t-194.5 -194t-267 -71.5t-266.5 71.5t-194 194t-71.5 266.5zM53 0v238h946v-238h-946zM238 901q0 -123 85.5 -209t208.5 -86t209 86t86 209t-86 209 t-209 86t-208.5 -86t-85.5 -209z" />
<glyph unicode="p" horiz-adv-x="1294" d="M0 -4v1438h479q10 0 27 -1t67 -9t95 -22.5t100.5 -46t95 -74t67 -112t27.5 -155.5t-26.5 -155.5t-68.5 -112t-93.5 -74t-102.5 -46t-93 -22.5t-68 -9l-27 -1h-239v-598h-240zM240 834h239q5 0 13.5 0.5t33.5 4t47.5 9.5t50.5 19.5t48 32t33.5 48t13.5 66.5t-13 66.5 t-34.5 48t-47 32t-51 19.5t-47 9.5t-34.5 4.5h-13h-239v-360z" />
<glyph unicode="q" horiz-adv-x="1705" d="M0 721q0 146 57 279.5t153 229.5t229.5 153t279.5 57t279.5 -57t230 -153t154 -229.5t57.5 -279.5q0 -226 -129 -410l153 -161l-174 -164l-147 153q-188 -139 -424 -139q-146 0 -279.5 57.5t-229.5 154t-153 230t-57 279.5zM240 721q0 -199 140.5 -340t338.5 -141 q140 0 258 75l-649 682q-88 -125 -88 -276zM512 1153l629 -661q57 105 57 229q0 198 -140 338.5t-339 140.5q-111 0 -207 -47z" />
<glyph unicode="r" horiz-adv-x="1308" d="M0 0v836h227l-227 358v240h477q10 0 27 -1t67 -9t95 -22.5t100.5 -46t95 -73.5t67 -111.5t27.5 -154.5q0 -90 -28.5 -161.5t-78 -116.5t-99.5 -72t-109 -43l389 -623h-280l-373 598h-137v-598h-240zM285 1194l223 -356q23 2 46.5 7t54 18t53.5 31t39 50t16 72 q0 50 -24.5 86.5t-60 53.5t-71 26.5t-59.5 10.5l-25 1h-192z" />
<glyph unicode="s" horiz-adv-x="1230" d="M0 418h240q3 -85 63.5 -131.5t145.5 -46.5q87 0 147.5 48t60.5 130q0 84 -63 130.5t-145 49.5q-112 0 -216 47q-113 53 -173 148.5t-60 222.5q0 123 64.5 220t166 147.5t218.5 50.5q187 0 315 -118t131 -300h-238q-3 85 -62 131.5t-146 46.5q-89 0 -149 -47.5t-60 -130.5 q0 -85 61.5 -132.5t147.5 -47.5q109 0 213 -48q114 -52 173.5 -147t59.5 -223q0 -93 -37 -173t-99 -132.5t-142.5 -82.5t-167.5 -30q-190 5 -318 119.5t-131 298.5z" />
<glyph unicode="t" horiz-adv-x="1056" d="M0 1194v240h717v-240h-240v-1194h-237v1194h-240z" />
<glyph unicode="u" horiz-adv-x="1521" d="M0 598v836h1192v-836q0 -21 -2.5 -52t-20.5 -104t-49 -135q-73 -148 -208.5 -226.5t-315.5 -78.5t-315.5 78.5t-208.5 226.5q-31 62 -49 135t-20.5 104t-2.5 52zM238 598q2 -98 51 -190q87 -166 307 -166q223 0 307 166q22 41 34.5 91t14.5 70.5t2 30.5v594h-716v-596z " />
<glyph unicode="v" horiz-adv-x="1482" d="M0 1434h1145l-572 -1434zM352 1196l221 -551l220 551h-441z" />
<glyph unicode="w" horiz-adv-x="2328" d="M0 1434h258l313 -789l316 789h266l315 -789l316 789h258l-574 -1434l-448 1122l-449 -1122z" />
<glyph unicode="x" horiz-adv-x="1652" d="M0 0l512 717l-512 717h293l366 -512l365 512h293l-512 -717l512 -717h-293l-365 512l-366 -512h-293z" />
<glyph unicode="y" horiz-adv-x="1654" d="M0 1434h293l366 -512l365 512h293l-539 -756v-678h-239v678z" />
<glyph unicode="z" horiz-adv-x="1497" d="M0 0l735 1194h-735v240h1161l-733 -1194h733v-240h-1161z" />
<glyph unicode="{" horiz-adv-x="962" d="M0 717l266 133v584h359v-240h-119v-954h119v-240h-359v584z" />
<glyph unicode="|" horiz-adv-x="575" d="M0 0v1434h240v-1434h-240z" />
<glyph unicode="}" horiz-adv-x="962" d="M0 0v240h119v954h-119v240h358v-584l267 -133l-267 -133v-584h-358z" />
<glyph unicode="~" horiz-adv-x="1265" d="M2 608q0 36 2 61t10 59t27 63.5t49 54.5q81 65 207 65q42 0 114 -12t107 -12q66 0 66 69h233q0 -36 -2 -60.5t-10 -58.5t-27.5 -63t-50.5 -53q-79 -66 -211 -66q-41 0 -111 11.5t-104 11.5q-65 0 -65 -70h-234z" />
<glyph unicode="&#xa1;" horiz-adv-x="573" d="M0 0v1016h240v-1016h-240zM0 1315q0 49 35 84t84 35q51 0 86 -34.5t35 -84.5q0 -51 -35 -86t-86 -35q-50 0 -84.5 35t-34.5 86z" />
<glyph unicode="&#xa2;" horiz-adv-x="1511" d="M0 717q0 146 56.5 278.5t152.5 228.5t229 153t279 57q145 0 276 -55t230 -154l-170 -170q-104 107 -248 131v-938q145 27 248 133l170 -170q-99 -99 -230 -154t-276 -55q-146 0 -279 56.5t-229 152.5t-152.5 228t-56.5 278zM238 717q0 -156 91.5 -280.5t235.5 -172.5v907 q-144 -48 -235.5 -173t-91.5 -281z" />
<glyph unicode="&#xad;" horiz-adv-x="1236" d="M4 356v238h946v-238h-946z" />
<glyph unicode="&#xb0;" horiz-adv-x="956" d="M43 1120q0 129 92 221.5t221 92.5t221.5 -92.5t92.5 -221.5t-92.5 -221t-221.5 -92t-221 92t-92 221zM223 1120q0 -56 38.5 -94.5t94.5 -38.5t94.5 38.5t38.5 94.5t-39 95.5t-94 39.5t-94 -39.5t-39 -95.5z" />
<glyph unicode="&#xb2;" horiz-adv-x="819" d="M0 610v123l342 479q-8 36 -36 60t-66 24q-41 0 -72 -30.5t-31 -71.5h-137q0 98 71 169t169 71q100 0 170.5 -71t70.5 -169v-23l-303 -423h303v-138h-481z" />
<glyph unicode="&#xb3;" horiz-adv-x="817" d="M0 852h137q0 -43 30 -72.5t73 -29.5t72.5 29.5t29.5 72.5q0 38 -25 67t-63 33l-18 2v138h18q38 6 63 35t25 67q0 43 -29.5 72.5t-72.5 29.5t-73 -29.5t-30 -72.5h-137q0 99 70.5 169.5t169.5 70.5q98 0 168.5 -71t70.5 -169q0 -104 -71 -172q71 -68 71 -170 q0 -100 -70.5 -170t-168.5 -70q-100 0 -170 70t-70 170z" />
<glyph unicode="&#xb4;" horiz-adv-x="1169" d="M0 1743l793 149l43 -227l-793 -149z" />
<glyph unicode="&#xb7;" horiz-adv-x="528" d="M0 541q0 50 35 85.5t84 35.5q51 0 86 -35.5t35 -85.5t-35 -84.5t-86 -34.5q-49 0 -84 35t-35 84z" />
<glyph unicode="&#xb9;" horiz-adv-x="638" d="M0 1360l184 74h117v-826h-139v668l-111 -43z" />
<glyph unicode="&#xbf;" horiz-adv-x="1173" d="M0 420q0 139 84 250t215 149v197h238v-410l-144 -10q-66 -9 -110.5 -59.5t-44.5 -116.5q0 -74 53 -127t127 -53q73 0 125.5 53t52.5 127h240q0 -173 -123 -295.5t-295 -122.5q-173 0 -295.5 122.5t-122.5 295.5zM299 1315q0 49 34.5 84t84.5 35t84.5 -35t34.5 -84 q0 -50 -35 -85.5t-84 -35.5t-84 35.5t-35 85.5z" />
<glyph unicode="&#xc0;" d="M0 0l571 1434l574 -1434h-258l-72 180h-485l-72 -180h-258zM162 1665l43 227l792 -149l-43 -227zM424 418h297l-150 370z" />
<glyph unicode="&#xc1;" d="M0 0l571 1434l574 -1434h-258l-72 180h-485l-72 -180h-258zM150 1743l792 149l43 -227l-792 -149zM424 418h297l-150 370z" />
<glyph unicode="&#xc2;" d="M0 0l571 1434l574 -1434h-258l-72 180h-485l-72 -180h-258zM94 1761l334 113l70 -227l-334 -115zM424 418h297l-150 370zM645 1647l70 227l334 -113l-70 -229z" />
<glyph unicode="&#xc3;" d="M0 0l571 1434l574 -1434h-258l-72 180h-485l-72 -180h-258zM160 1516q0 36 2 60.5t10 58.5t27 63.5t49 54.5q82 66 207 66q42 0 114 -12.5t107 -12.5q13 0 25 3t26 20t14 47h234q0 -36 -2 -61t-10 -58.5t-27.5 -63t-50.5 -53.5q-78 -65 -211 -65q-41 0 -111 11t-104 11 q-66 0 -66 -69h-233zM424 418h297l-150 370z" />
<glyph unicode="&#xc4;" d="M0 0l571 1434l574 -1434h-258l-72 180h-485l-72 -180h-258zM229 1632q0 49 34.5 84t82.5 35q50 0 84.5 -34.5t34.5 -84.5q0 -47 -35 -81.5t-84 -34.5q-47 0 -82 34.5t-35 81.5zM424 418h297l-150 370zM676 1632q0 49 34.5 84t82.5 35q49 0 83.5 -34.5t34.5 -84.5 q0 -48 -34.5 -82t-83.5 -34q-47 0 -82 34.5t-35 81.5z" />
<glyph unicode="&#xc5;" d="M0 0l526 1319q-72 14 -120 71.5t-48 133.5q0 86 61.5 147.5t147.5 61.5t147.5 -61.5t61.5 -147.5q0 -73 -45 -129.5t-115 -73.5l84 -211l445 -1110h-258l-72 178h-485l-72 -178h-258zM424 418h295l-148 370zM477 1524q0 -37 26.5 -63.5t63.5 -26.5t63.5 26.5t26.5 63.5 t-26.5 63.5t-63.5 26.5t-63.5 -26.5t-26.5 -63.5z" />
<glyph unicode="&#xc6;" horiz-adv-x="1875" d="M0 0l573 1434h623v-240h-528l143 -358h504v-240h-408l144 -358h385v-238h-549l-72 178h-485l-72 -178h-258zM424 418h297l-148 370z" />
<glyph unicode="&#xc8;" horiz-adv-x="1245" d="M0 0v1434h956v-240h-716v-358h716v-238h-716v-358h716v-240h-956zM63 1665l43 227l793 -149l-43 -227z" />
<glyph unicode="&#xc9;" horiz-adv-x="1245" d="M0 0v1434h956v-240h-716v-358h716v-238h-716v-358h716v-240h-956zM61 1743l793 149l43 -227l-793 -149z" />
<glyph unicode="&#xca;" horiz-adv-x="1245" d="M0 0v1434h956v-240h-716v-358h716v-238h-716v-358h716v-240h-956zM0 1761l334 113l69 -227l-333 -115zM551 1647l70 227l333 -113l-69 -229z" />
<glyph unicode="&#xcb;" horiz-adv-x="1245" d="M0 0v1434h956v-240h-716v-358h716v-238h-716v-358h716v-240h-956zM145 1632q0 49 34.5 84t82.5 35q50 0 84.5 -34.5t34.5 -84.5q0 -47 -35 -81.5t-84 -34.5q-47 0 -82 34.5t-35 81.5zM592 1632q0 49 34.5 84t82.5 35q49 0 83.5 -34.5t34.5 -84.5q0 -48 -34.5 -82 t-83.5 -34q-47 0 -82 34.5t-35 81.5z" />
<glyph unicode="&#xcd;" horiz-adv-x="1026" d="M0 1743l793 149l43 -227l-793 -149zM319 0v1434h240v-1434h-240z" />
<glyph unicode="&#xce;" horiz-adv-x="950" d="M0 1761l334 113l69 -227l-333 -115zM328 0v1434h239v-1434h-239zM516 1647l70 227l334 -113l-70 -229z" />
<glyph unicode="&#xcf;" horiz-adv-x="741" d="M2 1632q0 49 34.5 84t82.5 35q49 0 84 -34.5t35 -84.5q0 -47 -35 -81.5t-84 -34.5q-47 0 -82 34.5t-35 81.5zM229 0v1434h240v-1434h-240zM449 1632q0 49 34.5 84t81.5 35q49 0 84 -34.5t35 -84.5q0 -47 -35 -81.5t-84 -34.5q-47 0 -81.5 34.5t-34.5 81.5z" />
<glyph unicode="&#xd1;" horiz-adv-x="1529" d="M0 0v1434h242l714 -1020v1020h238v-1434h-242l-712 1020v-1020h-240zM199 1516q0 36 2 60.5t10 58.5t27 63.5t49 54.5q82 66 207 66q42 0 114 -12.5t107 -12.5q13 0 25 3t26 20t14 47h234q0 -36 -2 -61t-10 -58.5t-27.5 -63t-50.5 -53.5q-78 -65 -211 -65q-41 0 -111 11 t-104 11q-66 0 -66 -69h-233z" />
<glyph unicode="&#xd2;" horiz-adv-x="1769" d="M0 715q0 146 56.5 279.5t152.5 229.5t228 153t278 57q196 0 361.5 -96.5t261.5 -262t96 -360.5q0 -146 -56.5 -278t-152.5 -228t-229.5 -152.5t-280.5 -56.5q-146 0 -278 56.5t-228 152.5t-152.5 228t-56.5 278zM238 715q0 -96 38 -184.5t102 -152.5t152.5 -102 t184.5 -38q98 0 187 38t153 102t101.5 152t37.5 185q0 199 -140 339t-339 140q-97 0 -185 -37.5t-152 -101.5t-102 -153t-38 -187zM297 1665l43 227l793 -149l-43 -227z" />
<glyph unicode="&#xd3;" horiz-adv-x="1769" d="M0 715q0 146 56.5 279.5t152.5 229.5t228 153t278 57q196 0 361.5 -96.5t261.5 -262t96 -360.5q0 -146 -56.5 -278t-152.5 -228t-229.5 -152.5t-280.5 -56.5q-146 0 -278 56.5t-228 152.5t-152.5 228t-56.5 278zM238 715q0 -96 38 -184.5t102 -152.5t152.5 -102 t184.5 -38q98 0 187 38t153 102t101.5 152t37.5 185q0 199 -140 339t-339 140q-97 0 -185 -37.5t-152 -101.5t-102 -153t-38 -187zM287 1743l792 149l43 -227l-792 -149z" />
<glyph unicode="&#xd4;" horiz-adv-x="1769" d="M0 717q0 146 56.5 278.5t152.5 228.5t228.5 153t277.5 57q146 0 279 -57t229 -153t152.5 -228.5t56.5 -278.5t-56.5 -278t-152.5 -228t-229 -152.5t-279 -56.5t-278 56.5t-228 152.5t-152.5 228t-56.5 278zM225 1761l334 113l70 -227l-334 -115zM238 717q0 -96 38 -184.5 t102 -152.5t152.5 -102t184.5 -38q97 0 185.5 38t152.5 102t101.5 152t37.5 185q0 198 -139.5 337.5t-337.5 139.5q-97 0 -185 -37.5t-152 -101.5t-102 -152.5t-38 -185.5zM776 1647l70 227l334 -113l-70 -229z" />
<glyph unicode="&#xd5;" horiz-adv-x="1769" d="M0 715q0 146 56.5 279.5t152.5 229.5t228 153t278 57q196 0 361.5 -96.5t261.5 -262t96 -360.5q0 -146 -56.5 -278t-152.5 -228t-229.5 -152.5t-280.5 -56.5q-146 0 -278 56.5t-228 152.5t-152.5 228t-56.5 278zM238 715q0 -96 38 -184.5t102 -152.5t152.5 -102 t184.5 -38q98 0 187 38t153 102t101.5 152t37.5 185q0 199 -140 339t-339 140q-97 0 -185 -37.5t-152 -101.5t-102 -153t-38 -187zM295 1516q0 36 2 60.5t10 58.5t27 63.5t49 54.5q82 66 207 66q42 0 114 -12.5t107 -12.5q9 0 17.5 2t21 8t20 21.5t7.5 38.5h233 q0 -36 -2 -61t-10 -58.5t-27.5 -63t-50.5 -53.5q-78 -65 -211 -65q-41 0 -111 11t-104 11q-66 0 -66 -69h-233z" />
<glyph unicode="&#xd6;" horiz-adv-x="1769" d="M0 715q0 146 56.5 279.5t152.5 229.5t228 153t278 57q196 0 361.5 -96.5t261.5 -262t96 -360.5q0 -146 -56.5 -278t-152.5 -228t-229.5 -152.5t-280.5 -56.5q-146 0 -278 56.5t-228 152.5t-152.5 228t-56.5 278zM238 715q0 -96 38 -184.5t102 -152.5t152.5 -102 t184.5 -38q98 0 187 38t153 102t101.5 152t37.5 185q0 199 -140 339t-339 140q-97 0 -185 -37.5t-152 -101.5t-102 -153t-38 -187zM371 1632q0 49 34.5 84t81.5 35q49 0 84 -34.5t35 -84.5q0 -47 -35 -81.5t-84 -34.5q-47 0 -81.5 34.5t-34.5 81.5zM817 1632q0 49 34.5 84 t82.5 35q50 0 84.5 -34.5t34.5 -84.5q0 -47 -35 -81.5t-84 -34.5q-47 0 -82 34.5t-35 81.5z" />
<glyph unicode="&#xd7;" horiz-adv-x="1181" d="M0 672l170 170l254 -254l252 252l168 -168l-252 -252l252 -252l-170 -168l-252 252l-252 -252l-168 168l252 252z" />
<glyph unicode="&#xd9;" horiz-adv-x="1521" d="M0 598q0 -21 2.5 -52t20.5 -104.5t49 -136.5q73 -148 208.5 -226.5t315.5 -78.5q181 0 316.5 78.5t209.5 226.5q31 63 49 136.5t20.5 104.5t2.5 52v836h-240v-836q-2 -98 -51 -192q-85 -166 -307 -166q-219 0 -307 166q-22 42 -34 90t-13 75l-2 27v836h-240v-836z M170 1665l43 227l793 -149l-43 -227z" />
<glyph unicode="&#xda;" horiz-adv-x="1521" d="M0 598v836h240v-836q0 -98 49 -192q88 -166 307 -166q222 0 307 166q22 42 34.5 90t14.5 75l2 27v836h240v-836q0 -21 -2.5 -52t-20.5 -104.5t-49 -136.5q-74 -148 -209.5 -226.5t-316.5 -78.5q-180 0 -315.5 78.5t-208.5 226.5q-31 63 -49 136.5t-20.5 104.5t-2.5 52z M164 1743l792 149l43 -227l-792 -149z" />
<glyph unicode="&#xdb;" horiz-adv-x="1521" d="M0 598v836h240v-836q0 -98 49 -192q88 -166 307 -166q222 0 307 166q22 42 34.5 90t14.5 75l2 27v836h240v-836q0 -21 -2.5 -52t-20.5 -104.5t-49 -136.5q-74 -148 -209.5 -226.5t-316.5 -78.5q-180 0 -315.5 78.5t-208.5 226.5q-31 63 -49 136.5t-20.5 104.5t-2.5 52z M127 1761l334 113l69 -227l-333 -115zM678 1647l70 227l333 -113l-69 -229z" />
<glyph unicode="&#xdc;" horiz-adv-x="1521" d="M0 598v836h240v-836q0 -98 49 -192q88 -166 307 -166q222 0 307 166q22 42 34.5 90t14.5 75l2 27v836h240v-836q0 -21 -2.5 -52t-20.5 -104.5t-49 -136.5q-74 -148 -209.5 -226.5t-316.5 -78.5q-180 0 -315.5 78.5t-208.5 226.5q-31 63 -49 136.5t-20.5 104.5t-2.5 52z M268 1632q0 49 34.5 84t82.5 35q49 0 84 -34.5t35 -84.5q0 -47 -35 -81.5t-84 -34.5q-47 0 -82 34.5t-35 81.5zM715 1632q0 49 34.5 84t81.5 35q49 0 84 -34.5t35 -84.5q0 -47 -35 -81.5t-84 -34.5q-47 0 -81.5 34.5t-34.5 81.5z" />
<glyph unicode="&#xdd;" horiz-adv-x="1654" d="M0 1434h293l366 -512l365 512h293l-539 -756v-678h-239v678zM225 1743l793 149l43 -227l-793 -149z" />
<glyph unicode="&#xdf;" horiz-adv-x="1286" d="M0 0v1432h477q10 0 27 -1t66.5 -9t95 -22.5t100.5 -46t94.5 -73.5t66.5 -111.5t27 -154.5q0 -61 -13 -110.5t-34 -80t-46 -52.5t-50.5 -32.5t-46.5 -16.5t-34 -6l-13 -1q67 0 115.5 -30.5t71 -74.5t35 -87.5t13.5 -74.5l2 -30q0 -67 -16.5 -124t-44 -97t-63 -73 t-75.5 -52.5t-79.5 -34.5t-75 -21.5t-63 -10.5t-43.5 -5h-17v238q5 0 13.5 0.5t33.5 4t47.5 9.5t50.5 19.5t48 32t33.5 48t13.5 66.5q0 50 -24.5 86.5t-60 53.5t-71 26.5t-59.5 10.5l-25 1v240q5 0 13.5 0.5t33.5 4t47.5 9.5t50.5 19.5t48 31.5t33.5 47.5t13.5 65.5 q0 50 -24.5 86.5t-60 54t-71 27t-60 12.5t-24.5 4h-223l-16 -1198h-238z" />
<glyph unicode="&#xf7;" horiz-adv-x="1236" d="M4 356h946v238h-946v-238zM365 119q0 50 34.5 84.5t83.5 34.5q51 0 86 -34.5t35 -84.5t-35 -84.5t-86 -34.5q-49 0 -83.5 34.5t-34.5 84.5zM365 823q0 50 34.5 84.5t83.5 34.5q51 0 86 -34.5t35 -84.5t-35 -84t-86 -34q-49 0 -83.5 34.5t-34.5 83.5z" />
<glyph unicode="&#xf8;" horiz-adv-x="1714" d="M0 1268l166 166l158 -160q181 129 403 129q190 0 351.5 -94t255 -255.5t93.5 -351.5q0 -222 -127 -405l150 -147l-166 -168l-147 151q-185 -133 -410 -133q-143 0 -272.5 55.5t-223 149.5t-149 224t-55.5 273q0 224 131 408zM260 702q0 -127 62.5 -235t170 -171 t234.5 -63q132 0 240 68l-641 641q-66 -107 -66 -240zM494 1106l639 -639q63 110 63 235q0 192 -138 329.5t-331 137.5q-129 0 -233 -63z" />
<glyph unicode="&#x152;" horiz-adv-x="1992" d="M0 717q0 145 57 278t153 229t229 153t278 57h956v-240h-717v-358h596v-238h-596v-358h717v-240h-956q-145 0 -278 57t-229 153t-153 229t-57 278zM248 717q0 -196 137 -335t332 -142v954q-195 -3 -332 -142.5t-137 -334.5z" />
<glyph unicode="&#x153;" horiz-adv-x="1992" d="M0 717q0 145 57 278t153 229t229 153t278 57h956v-240h-717v-358h596v-238h-596v-358h717v-240h-956q-145 0 -278 57t-229 153t-153 229t-57 278zM248 717q0 -196 137 -335t332 -142v954q-195 -3 -332 -142.5t-137 -334.5z" />
<glyph unicode="&#x178;" horiz-adv-x="1654" d="M0 1434h293l366 -512l365 512h293l-539 -756v-678h-239v678zM319 1632q0 49 34.5 84t82.5 35q50 0 84.5 -34.5t34.5 -84.5q0 -47 -35 -81.5t-84 -34.5q-47 0 -82 34.5t-35 81.5zM766 1632q0 49 34.5 84t82.5 35q49 0 83.5 -34.5t34.5 -84.5q0 -48 -34.5 -82t-83.5 -34 q-47 0 -82 34.5t-35 81.5z" />
<glyph unicode="&#x2000;" horiz-adv-x="946" />
<glyph unicode="&#x2001;" horiz-adv-x="1892" />
<glyph unicode="&#x2002;" horiz-adv-x="946" />
<glyph unicode="&#x2003;" horiz-adv-x="1892" />
<glyph unicode="&#x2004;" horiz-adv-x="630" />
<glyph unicode="&#x2005;" horiz-adv-x="473" />
<glyph unicode="&#x2006;" horiz-adv-x="315" />
<glyph unicode="&#x2007;" horiz-adv-x="315" />
<glyph unicode="&#x2008;" horiz-adv-x="236" />
<glyph unicode="&#x2009;" horiz-adv-x="378" />
<glyph unicode="&#x200a;" horiz-adv-x="105" />
<glyph unicode="&#x2010;" horiz-adv-x="1236" d="M4 356v238h946v-238h-946z" />
<glyph unicode="&#x2011;" horiz-adv-x="1236" d="M4 356v238h946v-238h-946z" />
<glyph unicode="&#x2012;" horiz-adv-x="1236" d="M4 356v238h946v-238h-946z" />
<glyph unicode="&#x2013;" horiz-adv-x="1146" d="M4 356v238h866v-238h-866z" />
<glyph unicode="&#x2014;" horiz-adv-x="1282" d="M4 356v238h985v-238h-985z" />
<glyph unicode="&#x202f;" horiz-adv-x="378" />
<glyph unicode="&#x205f;" horiz-adv-x="473" />
<glyph unicode="&#x20ac;" horiz-adv-x="1511" d="M0 717q0 146 56.5 278.5t152.5 228.5t229 153t279 57q145 0 276 -55t230 -154l-170 -170q-66 66 -152.5 102.5t-183.5 36.5q-180 0 -318 -119h496v-299h-653q-4 -36 -4 -59q0 -14 4 -60h653v-297h-496q136 -120 318 -120q198 0 336 141l170 -170q-99 -99 -230 -154 t-276 -55q-146 0 -279 56.5t-229 152.5t-152.5 228t-56.5 278z" />
<glyph unicode="&#x2122;" horiz-adv-x="1376" d="M0 1333v101h303v-101h-100v-508h-103v508h-100zM381 825h100v381l187 -381h94l174 373v-373h102v609h-104l-221 -473l-230 473h-102v-609z" />
<glyph unicode="&#x25fc;" horiz-adv-x="1433" d="M0 0v1434h1434v-1434h-1434z" />
</font>
</defs>
</svg>
